<svg width="300" height="300" viewBox="0 0 300 300" fill="none" xmlns="http://www.w3.org/2000/svg">
<rect x="100" y="100" width="100" height="100" fill="#F5F5F5"/>
<rect x="99.5" y="99.5" width="101" height="101" stroke="black" stroke-opacity="0.98"/>
<path d="M150.356 177.746C148.119 177.71 145.882 177.284 143.645 176.467C141.407 175.651 139.365 174.275 137.519 172.339C135.672 170.386 134.19 167.749 133.071 164.429C131.952 161.091 131.393 156.901 131.393 151.858C131.393 147.028 131.846 142.749 132.751 139.021C133.657 135.274 134.971 132.123 136.693 129.566C138.416 126.991 140.493 125.038 142.925 123.706C145.376 122.375 148.137 121.709 151.208 121.709C154.262 121.709 156.979 122.321 159.358 123.547C161.755 124.754 163.708 126.441 165.218 128.607C166.727 130.773 167.704 133.268 168.147 136.091H161.649C161.045 133.641 159.873 131.608 158.133 129.992C156.393 128.376 154.085 127.568 151.208 127.568C146.983 127.568 143.653 129.406 141.221 133.081C138.806 136.757 137.59 141.915 137.572 148.555H137.998C138.993 147.046 140.173 145.759 141.541 144.694C142.925 143.61 144.452 142.776 146.121 142.19C147.791 141.604 149.557 141.311 151.422 141.311C154.547 141.311 157.405 142.092 159.998 143.655C162.59 145.2 164.667 147.339 166.23 150.074C167.792 152.79 168.574 155.906 168.574 159.422C168.574 162.795 167.819 165.885 166.31 168.69C164.8 171.478 162.679 173.697 159.944 175.349C157.228 176.982 154.032 177.781 150.356 177.746ZM150.356 171.886C152.593 171.886 154.6 171.327 156.375 170.208C158.169 169.09 159.58 167.589 160.61 165.707C161.658 163.825 162.182 161.73 162.182 159.422C162.182 157.167 161.675 155.116 160.663 153.27C159.669 151.405 158.293 149.923 156.535 148.822C154.795 147.721 152.807 147.17 150.569 147.17C148.883 147.17 147.311 147.508 145.855 148.183C144.399 148.839 143.121 149.745 142.02 150.899C140.937 152.053 140.085 153.376 139.463 154.868C138.842 156.341 138.531 157.895 138.531 159.528C138.531 161.695 139.037 163.719 140.049 165.601C141.079 167.483 142.482 169.001 144.257 170.155C146.05 171.309 148.083 171.886 150.356 171.886Z" fill="black"/>
</svg>
