<svg width="300" height="300" viewBox="0 0 300 300" fill="none" xmlns="http://www.w3.org/2000/svg">
<rect x="100" y="100" width="100" height="100" fill="#F5F5F5"/>
<rect x="99.5" y="99.5" width="101" height="101" stroke="black" stroke-opacity="0.98"/>
<path d="M150.2 177.746C146.684 177.746 143.55 177.142 140.798 175.935C138.064 174.727 135.889 173.049 134.273 170.901C132.675 168.735 131.805 166.222 131.663 163.364H138.374C138.517 165.121 139.12 166.64 140.186 167.918C141.251 169.179 142.645 170.155 144.367 170.848C146.089 171.54 147.998 171.886 150.093 171.886C152.437 171.886 154.514 171.478 156.325 170.661C158.137 169.844 159.557 168.708 160.587 167.252C161.617 165.796 162.132 164.109 162.132 162.192C162.132 160.185 161.634 158.419 160.64 156.892C159.646 155.347 158.19 154.14 156.272 153.27C154.355 152.4 152.011 151.964 149.241 151.964H144.873V146.105H149.241C151.407 146.105 153.307 145.714 154.941 144.933C156.592 144.152 157.879 143.051 158.802 141.631C159.743 140.21 160.214 138.541 160.214 136.624C160.214 134.777 159.806 133.17 158.989 131.803C158.172 130.436 157.018 129.37 155.526 128.607C154.053 127.843 152.313 127.462 150.306 127.462C148.424 127.462 146.649 127.808 144.98 128.5C143.328 129.175 141.979 130.161 140.931 131.457C139.884 132.735 139.316 134.28 139.227 136.091H132.835C132.941 133.232 133.802 130.729 135.418 128.58C137.034 126.414 139.147 124.727 141.757 123.52C144.385 122.312 147.27 121.709 150.413 121.709C153.786 121.709 156.681 122.392 159.095 123.76C161.51 125.109 163.366 126.893 164.662 129.113C165.958 131.332 166.606 133.729 166.606 136.304C166.606 139.376 165.798 141.995 164.182 144.161C162.584 146.327 160.409 147.827 157.657 148.662V149.088C161.102 149.656 163.792 151.121 165.727 153.483C167.662 155.826 168.63 158.729 168.63 162.192C168.63 165.157 167.822 167.82 166.207 170.182C164.608 172.526 162.425 174.372 159.655 175.722C156.885 177.071 153.733 177.746 150.2 177.746Z" fill="black"/>
</svg>
