<svg width="300" height="300" viewBox="0 0 300 300" fill="none" xmlns="http://www.w3.org/2000/svg">
<rect width="300" height="300" fill="#F5F5F5"/>
<line x1="150" y1="50" x2="150" y2="250" stroke="black" stroke-width="4"/>
<line x1="105" y1="51" x2="195" y2="51" stroke="black" stroke-width="4"/>
<line x1="105" y1="248" x2="195" y2="248" stroke="black" stroke-width="4"/>
<path d="M213.398 191H208.114C207.801 189.48 207.254 188.145 206.473 186.994C205.706 185.844 204.768 184.878 203.661 184.097C202.567 183.301 201.352 182.705 200.017 182.307C198.682 181.909 197.29 181.71 195.841 181.71C193.199 181.71 190.805 182.378 188.661 183.713C186.53 185.048 184.832 187.016 183.568 189.615C182.318 192.214 181.693 195.403 181.693 199.182C181.693 202.96 182.318 206.149 183.568 208.749C184.832 211.348 186.53 213.315 188.661 214.651C190.805 215.986 193.199 216.653 195.841 216.653C197.29 216.653 198.682 216.455 200.017 216.057C201.352 215.659 202.567 215.07 203.661 214.288C204.768 213.493 205.706 212.52 206.473 211.369C207.254 210.205 207.801 208.869 208.114 207.364H213.398C213 209.594 212.276 211.589 211.224 213.351C210.173 215.112 208.866 216.611 207.304 217.847C205.741 219.068 203.987 219.999 202.041 220.638C200.109 221.277 198.043 221.597 195.841 221.597C192.119 221.597 188.81 220.688 185.912 218.869C183.014 217.051 180.734 214.466 179.072 211.114C177.411 207.761 176.58 203.784 176.58 199.182C176.58 194.58 177.411 190.602 179.072 187.25C180.734 183.898 183.014 181.312 185.912 179.494C188.81 177.676 192.119 176.767 195.841 176.767C198.043 176.767 200.109 177.087 202.041 177.726C203.987 178.365 205.741 179.303 207.304 180.538C208.866 181.76 210.173 183.251 211.224 185.013C212.276 186.76 213 188.756 213.398 191Z" fill="black"/>
</svg>
