<svg width="300" height="300" viewBox="0 0 300 300" fill="none" xmlns="http://www.w3.org/2000/svg">
<rect x="100" y="100" width="100" height="100" fill="#F5F5F5"/>
<rect x="99.5" y="99.5" width="101" height="101" stroke="black" stroke-opacity="0.98"/>
<path d="M149.877 177.746C146.752 177.746 143.938 177.124 141.434 175.881C138.93 174.638 136.924 172.934 135.415 170.768C133.906 168.602 133.08 166.134 132.938 163.364H139.33C139.579 165.832 140.697 167.874 142.686 169.489C144.692 171.087 147.089 171.886 149.877 171.886C152.114 171.886 154.103 171.363 155.843 170.315C157.601 169.267 158.977 167.829 159.971 166C160.983 164.154 161.489 162.067 161.489 159.741C161.489 157.362 160.965 155.24 159.918 153.376C158.888 151.494 157.467 150.011 155.656 148.928C153.845 147.845 151.777 147.295 149.451 147.277C147.782 147.259 146.068 147.517 144.31 148.049C142.553 148.564 141.106 149.23 139.969 150.047L133.79 149.301L137.093 122.455H165.431V128.314H142.633L140.715 144.401H141.034C142.153 143.513 143.556 142.776 145.243 142.19C146.929 141.604 148.687 141.311 150.516 141.311C153.854 141.311 156.828 142.11 159.438 143.708C162.066 145.288 164.126 147.455 165.617 150.207C167.126 152.959 167.881 156.102 167.881 159.635C167.881 163.115 167.1 166.222 165.537 168.957C163.993 171.673 161.862 173.822 159.145 175.402C156.429 176.964 153.339 177.746 149.877 177.746Z" fill="black"/>
</svg>
