<svg width="300" height="300" viewBox="0 0 300 300" fill="none" xmlns="http://www.w3.org/2000/svg">
<rect width="300" height="300" fill="#F5F5F5"/>
<line x1="140" y1="50" x2="140" y2="250" stroke="black" stroke-width="4"/>
<line x1="160" y1="50" x2="160" y2="250" stroke="black" stroke-width="4"/>
<line x1="105" y1="48" x2="195" y2="48" stroke="black" stroke-width="4"/>
<line x1="105" y1="248" x2="195" y2="248" stroke="black" stroke-width="4"/>
<path d="M213.398 194H208.114C207.801 192.48 207.254 191.145 206.473 189.994C205.706 188.844 204.768 187.878 203.661 187.097C202.567 186.301 201.352 185.705 200.017 185.307C198.682 184.909 197.29 184.71 195.841 184.71C193.199 184.71 190.805 185.378 188.661 186.713C186.53 188.048 184.832 190.016 183.568 192.615C182.318 195.214 181.693 198.403 181.693 202.182C181.693 205.96 182.318 209.149 183.568 211.749C184.832 214.348 186.53 216.315 188.661 217.651C190.805 218.986 193.199 219.653 195.841 219.653C197.29 219.653 198.682 219.455 200.017 219.057C201.352 218.659 202.567 218.07 203.661 217.288C204.768 216.493 205.706 215.52 206.473 214.369C207.254 213.205 207.801 211.869 208.114 210.364H213.398C213 212.594 212.276 214.589 211.224 216.351C210.173 218.112 208.866 219.611 207.304 220.847C205.741 222.068 203.987 222.999 202.041 223.638C200.109 224.277 198.043 224.597 195.841 224.597C192.119 224.597 188.81 223.688 185.912 221.869C183.014 220.051 180.734 217.466 179.072 214.114C177.411 210.761 176.58 206.784 176.58 202.182C176.58 197.58 177.411 193.602 179.072 190.25C180.734 186.898 183.014 184.312 185.912 182.494C188.81 180.676 192.119 179.767 195.841 179.767C198.043 179.767 200.109 180.087 202.041 180.726C203.987 181.365 205.741 182.303 207.304 183.538C208.866 184.76 210.173 186.251 211.224 188.013C212.276 189.76 213 191.756 213.398 194Z" fill="black"/>
</svg>
