<svg width="300" height="300" viewBox="0 0 300 300" fill="none" xmlns="http://www.w3.org/2000/svg">
<rect x="100" y="100" width="100" height="100" fill="#F5F5F5"/>
<rect x="99.5" y="99.5" width="101" height="101" stroke="black" stroke-opacity="0.98"/>
<path d="M132.941 177V172.206L150.945 152.497C153.058 150.189 154.798 148.183 156.166 146.478C157.533 144.756 158.545 143.14 159.202 141.631C159.877 140.104 160.214 138.506 160.214 136.837C160.214 134.919 159.752 133.259 158.829 131.856C157.923 130.453 156.681 129.37 155.1 128.607C153.52 127.843 151.744 127.462 149.774 127.462C147.678 127.462 145.85 127.897 144.287 128.767C142.742 129.619 141.544 130.817 140.692 132.362C139.857 133.907 139.44 135.718 139.44 137.795H133.154C133.154 134.599 133.891 131.794 135.365 129.379C136.839 126.964 138.845 125.082 141.384 123.733C143.941 122.384 146.808 121.709 149.987 121.709C153.183 121.709 156.015 122.384 158.483 123.733C160.951 125.082 162.886 126.902 164.289 129.193C165.692 131.483 166.393 134.031 166.393 136.837C166.393 138.843 166.029 140.805 165.301 142.723C164.591 144.623 163.348 146.744 161.572 149.088C159.814 151.414 157.373 154.255 154.248 157.611L141.997 170.714V171.141H167.352V177H132.941Z" fill="black"/>
</svg>
