<svg width="500" height="512" xmlns="http://www.w3.org/2000/svg" version="1.1" enable-background="new 0 0 2551.18 510.24" xml:space="preserve">
 <g>
  <title>Layer 1</title>
  <g id="svg_103">
   <g id="svg_56">
    <path fill="#010101" d="m61.966,339.464l75.955,-58.662l-75.955,58.662z" id="svg_57"/>
    <rect x="251.10642" y="186.12639" transform="matrix(-0.6113 -0.7914 0.7914 -0.6113 69.6961 653.949)" fill="#010101" width="5" height="95.971" id="svg_58"/>
   </g>
   <g id="svg_59">
    <polyline fill="#16666C" points="155.03500366210938,339.4639892578125 139.46798706054688,282.0090026855469 63.105987548828125,339.4639892578125 155.03500366210938,339.4639892578125 " id="svg_60"/>
    <path fill="#16666C" d="m158.303,341.964l-102.678,0l85.29,-64.173l17.388,64.173zm-87.716,-5l81.181,0l-13.747,-50.737l-67.434,50.737z" id="svg_61"/>
   </g>
   <g id="svg_62">
    <polygon fill="#40C3DA" points="54.510009765625,341.31500244140625 114.91000366210938,191.4359893798828 139.20201110839844,278.8160095214844 " id="svg_63"/>
    <path fill="#40C3DA" d="m52.263,344.216l62.821,-155.887l25.267,90.882l-88.088,65.005zm62.473,-149.672l-57.979,143.87l81.297,-59.993l-23.318,-83.877z" id="svg_64"/>
   </g>
   <g id="svg_65">
    <polygon fill="#A8AAAD" points="138.27999877929688,278.5589904785156 242.17901611328125,202.58499145507812 153.9840087890625,339.3599853515625 " id="svg_66"/>
    <path fill="#A8AAAD" d="m153.587,341.821l-16.445,-63.669l108.799,-79.557l-92.354,143.226zm-14.169,-62.855l14.964,57.933l84.035,-130.323l-98.999,72.39z" id="svg_67"/>
   </g>
   <g id="svg_68">
    <polygon fill="#40C3DA" points="416.50299072265625,76.84100341796875 353.7770080566406,65.79899597167969 456.7850341796875,151.4879913330078 " id="svg_69"/>
    <path fill="#40C3DA" d="m460.121,155.563l-109.874,-91.401l66.906,11.778l42.968,79.623zm-102.811,-88.127l96.14,79.976l-37.597,-69.67l-58.543,-10.306z" id="svg_70"/>
   </g>
   <g id="svg_71">
    <polygon fill="#595A5C" points="299.8000183105469,57.173004150390625 310.77301025390625,34.20500183105469 378.38299560546875,68.9050064086914 " id="svg_72"/>
    <path fill="#595A5C" d="m384.249,70.793l-85.935,-12.831l12,-25.116l73.935,37.947zm-82.964,-14.409l71.23,10.635l-61.283,-31.454l-9.947,20.819z" id="svg_73"/>
   </g>
   <path fill="#2BACE2" d="m155.035,339.464" id="svg_74"/>
   <path fill="#010101" d="m465.601,161.134l-121.071,-98.88l73.291,12.22l47.78,86.66zm-103.342,-90.855l86.48,70.628l-34.129,-61.899l-52.351,-8.729z" id="svg_75"/>
   <path fill="#010101" d="m405.327,77.319l-111.088,-18.54l13.599,-28.779l97.489,47.319zm-103.742,-22.383l70.375,11.745l-61.761,-29.977l-8.614,18.232z" id="svg_76"/>
   <g id="svg_77">
    <polygon fill="#010101" points="460.5050048828125,188.07199096679688 415.291015625,119.78300476074219 465.53302001953125,161.05599975585938 " id="svg_78"/>
    <path fill="#010101" d="m437.832,144.771l22.245,18.274l-2.228,11.961l-20.017,-30.235m-22.541,-24.988l45.214,68.289l5.028,-27.015l-50.242,-41.274l0,0z" id="svg_79"/>
   </g>
   <path fill="none" stroke="#010101" stroke-width="5" stroke-miterlimit="10" d="m80.801,409.413" id="svg_80"/>
   <path fill="none" stroke="#010101" stroke-width="5" stroke-miterlimit="10" d="m362.174,95.747" id="svg_81"/>
   <path fill="#010101" d="m222.836,452.076c-40.15,0 -78.943,-12.621 -112.186,-36.5c-32.269,-23.18 -57.084,-56.072 -69.875,-92.62c-7.149,-20.432 -10.775,-41.867 -10.775,-63.715c0,-106.331 86.505,-192.835 192.835,-192.835c106.329,0 192.835,86.505 192.835,192.835c0,51.399 -21.163,100.106 -59.59,137.147c-36.713,35.391 -85.279,55.688 -133.244,55.688zm0,-380.671c-103.573,0 -187.835,84.262 -187.835,187.835c0,21.282 3.531,42.165 10.495,62.062c12.454,35.589 36.629,67.626 68.072,90.212c32.387,23.264 70.171,35.562 109.269,35.562c46.683,0 93.983,-19.787 129.774,-54.287c37.44,-36.09 58.061,-83.519 58.061,-133.548c-0.001,-103.573 -84.264,-187.836 -187.836,-187.836z" id="svg_82"/>
   <path fill="none" stroke="#010101" stroke-width="5" stroke-miterlimit="10" d="m104.471,182.368" id="svg_83"/>
   <polygon fill="#010101" points="385.2610168457031,342.7619934082031 222.52099609375,113.52198791503906 146.885009765625,205.86900329589844 143.01699829101562,202.70098876953125 222.80502319335938,105.28399658203125 389.3370056152344,339.86798095703125 " id="svg_84"/>
   <path fill="#010101" d="m50.918,343.819l192.037,-146.026l104.293,40.584l46.814,105.276l-343.144,0.166zm192.834,-140.352l-177.988,135.344l320.605,-0.152l-42.854,-96.37l-99.763,-38.822z" id="svg_85"/>
   <polygon fill="#010101" points="154.09799194335938,343.62200927734375 111.83601379394531,192.4639892578125 116.6510009765625,191.1169891357422 155.97299194335938,331.75799560546875 243.96401977539062,199.2469940185547 248.1300048828125,202.01199340820312 " id="svg_86"/>
   <polygon fill="#010101" points="56.291015625,343.6090087890625 51.6409912109375,341.77099609375 112.57901000976562,187.68800354003906 206.7750244140625,228.06700134277344 204.80599975585938,232.66200256347656 115.33599853515625,194.30999755859375 " id="svg_87"/>
   <path fill="#FCEE23" d="m205.791,230.364" id="svg_88"/>
   <path fill="none" stroke="#010101" stroke-width="5" stroke-miterlimit="10" d="m205.791,230.364" id="svg_89"/>
   <path fill="none" stroke="#010101" stroke-width="5" stroke-miterlimit="10" d="m79.47,380.127" id="svg_90"/>
   <path fill="none" stroke="#010101" stroke-width="5" stroke-miterlimit="10" d="m323.775,98.141" id="svg_91"/>
   <path fill="none" stroke="#010101" stroke-width="5" stroke-miterlimit="10" d="m347.491,115.928" id="svg_92"/>
   <path fill="none" stroke="#010101" stroke-width="5" stroke-miterlimit="10" d="m98.041,400.633" id="svg_93"/>
   <path fill="none" stroke="#010101" stroke-width="5" stroke-miterlimit="10" d="m77.094,382.868" id="svg_94"/>
   <g id="svg_95">
    <polygon fill="#010101" points="59.576995849609375,476.2829895019531 100.34100341796875,426.8320007324219 63.90301513671875,433.4840087890625 " id="svg_96"/>
    <path fill="#010101" d="m87.782,434.208l-21.571,26.167l2.29,-22.647l19.281,-3.52m12.559,-7.376l-36.438,6.651l-4.326,42.8l40.764,-49.451l0,0z" id="svg_97"/>
   </g>
   <polygon fill="#010101" points="57.72599792480469,480.781982421875 61.63600158691406,432.0249938964844 93.30999755859375,395.75 97.07600402832031,399.03900146484375 66.48699951171875,434.07000732421875 63.920013427734375,466.083984375 112.06298828125,410.9469909667969 115.82998657226562,414.23699951171875 " id="svg_98"/>
   <polygon fill="#010101" points="363.7140197753906,130.33999633789062 359.947998046875,127.05099487304688 386.21002197265625,96.97400665283203 371.2640075683594,85.01900482177734 345.3489990234375,114.69801330566406 341.5830078125,111.40899658203125 370.64599609375,78.12300109863281 393.40899658203125,96.33099365234375 " id="svg_99"/>
   <g id="svg_100">
    <line fill="none" x1="63.903" y1="433.484" x2="103.522" y2="425.029" id="svg_101"/>
    <rect x="196.38426" y="315.29437" transform="matrix(-0.2088 -0.9779 0.9779 -0.2088 -202.916 693.862)" fill="#010101" width="5.001" height="40.512" id="svg_102"/>
   </g>
  </g>
 </g>

</svg>