<svg width="500" height="500" viewBox="0 0 500 500" fill="none" xmlns="http://www.w3.org/2000/svg">
<rect width="500" height="500" fill="white"/>
<path d="M60.4386 329.577L63.4951 333.442L139.447 276.15L136.39 272.285L60.4386 329.577Z" fill="#010101"/>
<path d="M155.035 331.508L139.468 275.399L63.106 331.508H155.035Z" fill="#16666C"/>
<path d="M158.303 333.949H55.625L140.915 271.28L158.303 333.949ZM70.587 329.066H151.768L138.021 279.519L70.587 329.066Z" fill="#16666C"/>
<path d="M54.51 333.315L114.91 186.949L139.202 272.281L54.51 333.315Z" fill="#40C3DA"/>
<path d="M52.2629 336.148L115.084 183.915L140.351 272.667L52.2629 336.148ZM114.736 189.984L56.7569 330.482L138.054 271.896L114.736 189.984Z" fill="#40C3DA"/>
<path d="M138.28 272.03L242.179 197.837L153.984 331.406L138.28 272.03Z" fill="#A8AAAD"/>
<path d="M153.587 333.81L137.142 271.633L245.941 193.94L153.587 333.81ZM139.418 272.428L154.382 329.003L238.417 201.734L139.418 272.428Z" fill="#A8AAAD"/>
<path d="M416.503 75.04L353.777 64.2568L456.785 147.937L416.503 75.04Z" fill="#40C3DA"/>
<path d="M460.121 151.917L350.247 62.6582L417.153 74.1602L460.121 151.917ZM357.31 65.8555L453.45 143.957L415.853 75.9199L357.31 65.8555Z" fill="#40C3DA"/>
<path d="M299.8 55.833L310.773 33.4033L378.383 67.29L299.8 55.833Z" fill="#595A5C"/>
<path d="M384.249 69.1338L298.314 56.6035L310.314 32.0762L384.249 69.1338ZM301.285 55.0625L372.515 65.4482L311.232 34.7314L301.285 55.0625Z" fill="#595A5C"/>
<path d="M465.601 157.357L344.53 60.7949L417.821 72.7285L465.601 157.357ZM362.259 68.6318L448.739 137.604L414.61 77.1563L362.259 68.6318Z" fill="#010101"/>
<path d="M405.327 75.5068L294.239 57.4014L307.838 29.2969L405.327 75.5068ZM301.585 53.6484L371.96 65.1182L310.199 35.8437L301.585 53.6484Z" fill="#010101"/>
<path d="M460.505 183.664L415.291 116.976L465.533 157.281L460.505 183.664Z" fill="#010101"/>
<path d="M437.832 141.378L460.077 159.224L457.849 170.904L437.832 141.378ZM415.291 116.976L460.505 183.664L465.533 157.282L415.291 116.976Z" fill="#010101"/>
<path d="M222.836 441.48C182.686 441.48 143.893 429.155 110.65 405.836C78.381 383.199 53.566 351.078 40.775 315.387C33.626 295.434 30 274.501 30 253.165C30 149.326 116.505 64.8496 222.835 64.8496C329.164 64.8496 415.67 149.327 415.67 253.165C415.67 303.359 394.507 350.925 356.08 387.098C319.367 421.659 270.801 441.48 222.836 441.48ZM222.836 69.7314C119.263 69.7314 35.001 152.019 35.001 253.164C35.001 273.947 38.532 294.341 45.496 313.771C57.95 348.526 82.125 379.812 113.568 401.869C145.955 424.588 183.739 436.598 222.837 436.598C269.52 436.598 316.82 417.274 352.611 383.583C390.051 348.339 410.672 302.021 410.672 253.165C410.671 152.02 326.408 69.7314 222.836 69.7314Z" fill="#010101"/>
<path d="M385.261 334.729L222.521 110.861L146.885 201.044L143.017 197.95L222.805 102.816L389.337 331.902L385.261 334.729Z" fill="#010101"/>
<path d="M50.918 335.761L242.955 193.157L347.248 232.79L394.062 335.599L50.918 335.761ZM243.752 198.698L65.764 330.87L386.369 330.722L343.515 236.61L243.752 198.698Z" fill="#010101"/>
<path d="M154.098 335.568L111.836 187.953L116.651 186.638L155.973 323.982L243.964 194.577L248.13 197.277L154.098 335.568Z" fill="#010101"/>
<path d="M56.2911 335.556L51.6411 333.761L112.579 183.289L206.775 222.722L204.806 227.209L115.336 189.756L56.2911 335.556Z" fill="#010101"/>
<path d="M59.5769 465.12L100.341 416.828L63.9029 423.324L59.5769 465.12Z" fill="#010101"/>
<path d="M87.7819 424.031L66.2109 449.585L68.5009 427.469L87.7819 424.031ZM100.341 416.828L63.9029 423.323L59.5769 465.12L100.341 416.828Z" fill="#010101"/>
<path d="M57.7261 469.514L61.6361 421.899L93.3101 386.475L97.0761 389.687L66.4871 423.896L63.9201 455.16L112.063 401.315L115.83 404.528L57.7261 469.514Z" fill="#010101"/>
<path d="M363.714 127.285L359.948 124.073L386.21 94.7012L371.264 83.0264L345.349 112.01L341.583 108.798L370.646 76.292L393.409 94.0732L363.714 127.285Z" fill="#010101"/>
<path d="M63.3611 420.99L64.4053 425.766L104.022 417.505L102.978 412.729L63.3611 420.99Z" fill="#010101"/>
</svg>
